<svg xmlns="http://www.w3.org/2000/svg" width="100" height="100" viewBox="0 0 100 100">
  <g id="Play_Video" data-name="Play Video" transform="translate(-911 -3619)">
    <circle id="circle" cx="50" cy="50" r="50" transform="translate(911 3619)" opacity="0.2"/>
    <path id="icon-play" d="M943.83,3699.528a2.06,2.06,0,0,1,2.022-3.59,30.924,30.924,0,1,0-6.7-5.092,2.06,2.06,0,1,1-2.912,2.913,34.815,34.815,0,1,1,7.593,5.769Zm11.23-13.9a2.06,2.06,0,0,1-1.186-1.865v-29.525a2.059,2.059,0,0,1,3.378-1.582l17.715,14.763a2.06,2.06,0,0,1,0,3.164l-17.715,14.763a2.061,2.061,0,0,1-2.192.282Zm2.934-6.262L970.431,3669l-12.437-10.365Z" fill="#fff"/>
  </g>
</svg>
