<svg version="1.0" xmlns="http://www.w3.org/2000/svg" width="346.667" height="346.667" viewBox="0 0 260 260"><path d="M21.1 73.2c2.6 6.8 33.3 83.3 34.9 87.3 2.7 6.5 3.9 9.4 8 19.7l4.3 10.8h26.3l23.4-58.3c12.8-32 24-59.7 24.7-61.5L144 68h-26.5l-13.4 33.8c-7.4 18.5-14.4 35.9-15.6 38.7-1.2 2.7-3 7.1-3.9 9.7-1 2.7-2 4.8-2.2 4.8-.3 0-.9-1.2-1.5-2.8-.5-1.5-8.2-21-17.1-43.5L47.7 68H19l2.1 5.2zm132.8-5c-.1.2-.2 27.9-.3 61.5l-.1 61.3H180v-45h53v-23l-24.2.1h-26.5c-2.3-.1-2.3-.2-2.3-16.1V91l4.8-.1c2.6 0 16.1 0 30 .1H240V68h-43c-23.6 0-43.1.1-43.1.2z"/></svg>