<svg height="640" viewBox="0 0 480 480" width="640" xmlns="http://www.w3.org/2000/svg"><path d="M240 0C107.453 0 0 107.453 0 240s107.453 240 240 240 240-107.453 240-240C479.852 107.516 372.484.148 240 0zm0 464C116.29 464 16 363.71 16 240S116.29 16 240 16s224 100.29 224 224c-.14 123.652-100.348 223.86-224 224zm0 0"/><path d="M345.176 269.266l-67.903-12a7.995 7.995 0 00-8.48 4.175l-16.465 31.551a128.157 128.157 0 01-65.305-65.336l31.52-16.465a7.995 7.995 0 004.176-8.48l-12-67.895a7.995 7.995 0 00-3.399-5.242 56.016 56.016 0 00-57.61-3.023A56.005 56.005 0 00120 176c.113 101.574 82.426 183.887 184 184a56.01 56.01 0 0049.45-29.727 56.005 56.005 0 00-3.052-57.617 7.982 7.982 0 00-5.222-3.39zM304 344c-92.738-.105-167.895-75.262-168-168a40 40 0 0159.61-34.871l10.343 58.605-32.8 17.121a8.005 8.005 0 00-3.786 9.93 144.204 144.204 0 0083.84 83.88 8.005 8.005 0 009.93-3.786l17.129-32.8 58.605 10.347A39.996 39.996 0 01304 344zm0 0"/></svg>